<svg xmlns="http://www.w3.org/2000/svg" width="28" height="28" viewBox="0 0 28 28">
  <path id="calendar" d="M142.978-836.614a3.066,3.066,0,0,1-2.113-.769,2.42,2.42,0,0,1-.865-1.879v-19.606a2.421,2.421,0,0,1,.865-1.879,3.066,3.066,0,0,1,2.113-.769h2.281v-3.1h2.534v3.1h12.48v-3.1h2.471v3.1h2.281a3.066,3.066,0,0,1,2.113.769,2.421,2.421,0,0,1,.865,1.879v19.606a2.42,2.42,0,0,1-.865,1.879,3.066,3.066,0,0,1-2.113.769Zm0-2.2h22.045a.513.513,0,0,0,.348-.141.411.411,0,0,0,.158-.31v-13.746H142.472v13.746a.411.411,0,0,0,.158.31.513.513,0,0,0,.348.141Zm-.507-16.394H165.53v-3.662a.411.411,0,0,0-.158-.31.513.513,0,0,0-.348-.141H142.978a.513.513,0,0,0-.348.141.411.411,0,0,0-.158.31Zm0,0v0ZM154-847.487a1.5,1.5,0,0,1-1.031-.379,1.184,1.184,0,0,1-.426-.917,1.184,1.184,0,0,1,.426-.917,1.5,1.5,0,0,1,1.031-.379,1.5,1.5,0,0,1,1.031.379,1.184,1.184,0,0,1,.426.917,1.184,1.184,0,0,1-.426.917A1.5,1.5,0,0,1,154-847.487Zm-6.588,0a1.5,1.5,0,0,1-1.031-.379,1.184,1.184,0,0,1-.426-.917,1.184,1.184,0,0,1,.426-.917,1.5,1.5,0,0,1,1.031-.379,1.5,1.5,0,0,1,1.031.379,1.184,1.184,0,0,1,.426.917,1.184,1.184,0,0,1-.426.917A1.5,1.5,0,0,1,147.413-847.487Zm13.177,0a1.5,1.5,0,0,1-1.031-.379,1.184,1.184,0,0,1-.426-.917,1.184,1.184,0,0,1,.426-.917,1.5,1.5,0,0,1,1.031-.379,1.5,1.5,0,0,1,1.031.379,1.184,1.184,0,0,1,.426.917,1.184,1.184,0,0,1-.426.917A1.5,1.5,0,0,1,160.589-847.487ZM154-841.741a1.5,1.5,0,0,1-1.031-.379,1.184,1.184,0,0,1-.426-.917,1.184,1.184,0,0,1,.426-.917,1.5,1.5,0,0,1,1.031-.379,1.5,1.5,0,0,1,1.031.379,1.184,1.184,0,0,1,.426.917,1.184,1.184,0,0,1-.426.917A1.5,1.5,0,0,1,154-841.741Zm-6.588,0a1.5,1.5,0,0,1-1.031-.379,1.184,1.184,0,0,1-.426-.917,1.184,1.184,0,0,1,.426-.917,1.5,1.5,0,0,1,1.031-.379,1.5,1.5,0,0,1,1.031.379,1.184,1.184,0,0,1,.426.917,1.184,1.184,0,0,1-.426.917A1.5,1.5,0,0,1,147.413-841.741Zm13.177,0a1.5,1.5,0,0,1-1.031-.379,1.184,1.184,0,0,1-.426-.917,1.184,1.184,0,0,1,.426-.917,1.5,1.5,0,0,1,1.031-.379,1.5,1.5,0,0,1,1.031.379,1.184,1.184,0,0,1,.426.917,1.184,1.184,0,0,1-.426.917A1.5,1.5,0,0,1,160.589-841.741Z" transform="translate(-140.001 864.614)" fill="#fff"/>
</svg>
