<svg xmlns="http://www.w3.org/2000/svg" width="28" height="28" viewBox="0 0 28 28">
  <path id="dashboard" d="M142.978-792a2.874,2.874,0,0,1-2.113-.865,2.874,2.874,0,0,1-.865-2.113v-22.045a2.874,2.874,0,0,1,.865-2.113,2.874,2.874,0,0,1,2.113-.865h22.045a2.874,2.874,0,0,1,2.113.865,2.874,2.874,0,0,1,.865,2.113v22.045a2.874,2.874,0,0,1-.865,2.113,2.874,2.874,0,0,1-2.113.865Zm0-2.471h9.787v-23.059h-9.787a.485.485,0,0,0-.348.158.484.484,0,0,0-.158.349v22.045a.484.484,0,0,0,.158.348A.484.484,0,0,0,142.978-794.47Zm12.258,0h9.787a.484.484,0,0,0,.348-.158.484.484,0,0,0,.158-.348V-806H155.236Zm0-14H165.53v-8.552a.484.484,0,0,0-.158-.349.485.485,0,0,0-.348-.158h-9.787Z" transform="translate(-140.001 819.999)" fill="#fff"/>
</svg>
