<svg xmlns="http://www.w3.org/2000/svg" width="28" height="28" viewBox="0 0 28 28">
  <path id="help" d="M113.985-837.724a1.449,1.449,0,0,0,1.066-.436,1.453,1.453,0,0,0,.435-1.067,1.448,1.448,0,0,0-.436-1.066,1.452,1.452,0,0,0-1.067-.435,1.448,1.448,0,0,0-1.066.436,1.452,1.452,0,0,0-.435,1.067,1.449,1.449,0,0,0,.436,1.066A1.453,1.453,0,0,0,113.985-837.724ZM112.941-843h2.074a4.626,4.626,0,0,1,.319-1.739,6.447,6.447,0,0,1,1.41-1.724,10.618,10.618,0,0,0,1.489-1.8,3.579,3.579,0,0,0,.517-1.945,3.562,3.562,0,0,0-1.367-2.972,5.094,5.094,0,0,0-3.235-1.07,4.677,4.677,0,0,0-3.054.985,5.554,5.554,0,0,0-1.724,2.32l1.893.76a4.257,4.257,0,0,1,.921-1.43,2.527,2.527,0,0,1,1.936-.7,2.431,2.431,0,0,1,1.931.716,2.341,2.341,0,0,1,.625,1.574,2.377,2.377,0,0,1-.428,1.375,6.529,6.529,0,0,1-1.091,1.2,8.247,8.247,0,0,0-1.834,2.089A5.551,5.551,0,0,0,112.941-843ZM114-832a13.638,13.638,0,0,1-5.46-1.1,14.142,14.142,0,0,1-4.446-2.992,14.135,14.135,0,0,1-2.993-4.444A13.625,13.625,0,0,1,100-846a13.638,13.638,0,0,1,1.1-5.46A14.141,14.141,0,0,1,104.1-855.9a14.134,14.134,0,0,1,4.444-2.993A13.624,13.624,0,0,1,114-860a13.638,13.638,0,0,1,5.46,1.1A14.141,14.141,0,0,1,123.9-855.9a14.134,14.134,0,0,1,2.993,4.444A13.625,13.625,0,0,1,128-846a13.638,13.638,0,0,1-1.1,5.46,14.143,14.143,0,0,1-2.992,4.446,14.135,14.135,0,0,1-4.444,2.993A13.625,13.625,0,0,1,114-832Zm0-2.21a11.378,11.378,0,0,0,8.363-3.426A11.378,11.378,0,0,0,125.79-846a11.378,11.378,0,0,0-3.426-8.363A11.378,11.378,0,0,0,114-857.789a11.378,11.378,0,0,0-8.363,3.426A11.378,11.378,0,0,0,102.211-846a11.378,11.378,0,0,0,3.426,8.363A11.378,11.378,0,0,0,114-834.21ZM114-846Z" transform="translate(-100.001 859.999)" fill="#fff"/>
</svg>
