<svg xmlns="http://www.w3.org/2000/svg" width="28" height="28" viewBox="0 0 28 28">
  <path id="map" d="M158.942-790.46l-9.882-3.475-7.089,2.755a1.346,1.346,0,0,1-1.349-.162A1.42,1.42,0,0,1,140-792.56v-21.7a1.544,1.544,0,0,1,.261-.88A1.471,1.471,0,0,1,141-815.7l8.064-2.755,9.882,3.475,7.089-2.755a1.381,1.381,0,0,1,1.349.138,1.346,1.346,0,0,1,.621,1.179V-794.6a1.444,1.444,0,0,1-.285.888,1.62,1.62,0,0,1-.773.557Zm-1.235-3.035v-19.358l-7.412-2.6V-796.1Zm2.471,0,5.353-1.782v-19.606l-5.353,2.03Zm-17.706-.541,5.353-2.062v-19.358l-5.353,1.814Zm17.706-18.817v0Zm-12.353-2.6v0Z" transform="translate(-140.001 818.46)" fill="#fff"/>
</svg>
