<svg xmlns="http://www.w3.org/2000/svg" width="28" height="28" viewBox="0 0 28 28">
  <path id="comment" d="M105.527-843.007h16.947v-2.266H105.527Zm0-4.531h16.947V-849.8H105.527Zm0-4.531h16.947v-2.266H105.527ZM128-832l-5.215-5.344H102.665a2.54,2.54,0,0,1-1.89-.793,2.669,2.669,0,0,1-.774-1.937v-17.195a2.669,2.669,0,0,1,.774-1.937,2.54,2.54,0,0,1,1.89-.793h22.672a2.54,2.54,0,0,1,1.89.793,2.669,2.669,0,0,1,.774,1.937Zm-25.336-7.61h21.062l2.063,2.091v-19.751a.449.449,0,0,0-.142-.32.429.429,0,0,0-.312-.145H102.665a.429.429,0,0,0-.312.145.449.449,0,0,0-.142.32v17.195a.449.449,0,0,0,.142.32A.429.429,0,0,0,102.665-839.609Zm-.453,0v0Z" transform="translate(-100.001 859.999)" fill="#fff"/>
</svg>
