<svg xmlns="http://www.w3.org/2000/svg" width="28" height="28" viewBox="0 0 28 28">
  <path id="notes" d="M142.978-794.47h22.045a.493.493,0,0,0,.364-.143.493.493,0,0,0,.143-.364v-14.779l-7.773-7.773H142.978a.494.494,0,0,0-.364.143.493.493,0,0,0-.143.364v22.045a.493.493,0,0,0,.143.364A.493.493,0,0,0,142.978-794.47Zm0,2.471a2.868,2.868,0,0,1-2.1-.873,2.868,2.868,0,0,1-.873-2.1v-22.045a2.868,2.868,0,0,1,.873-2.1,2.868,2.868,0,0,1,2.1-.873h15.79L168-810.766v15.79a2.868,2.868,0,0,1-.873,2.1,2.868,2.868,0,0,1-2.1.873Zm3.2-6.588h15.647v-2.471H146.178Zm0-6.177h15.647v-2.471H146.178Zm0-6.176h10.484v-2.471H146.178Zm-3.706,16.471v0Z" transform="translate(-140.001 819.999)" fill="#fff"/>
</svg>
